<svg width="644" height="397" viewBox="0 0 644 397" fill="none" xmlns="http://www.w3.org/2000/svg">
<path d="M629.382 316.352C619.565 313.021 594.982 312.015 547.502 298.124C500.021 284.232 492.522 244.333 465.755 240.225C454.719 238.531 371.455 301.9 359.726 300.063C320.388 293.901 351.214 238.465 347.149 238.465C338.932 238.465 104.557 347.52 85.8564 338.783C76.5496 334.435 95.5381 308.505 117.286 266.319C139.034 224.132 229.952 131.241 251.426 101.825C272.899 72.4096 277.698 71.1515 282.618 62.4149C287.538 53.6783 286.413 30.3596 275.072 9.99336C271.753 4.03375 255.589 -4.65813 253.75 3.01663C251.128 13.953 260.857 -0.314271 229.907 33.7528C198.957 67.8198 46.2232 133.195 0 164.746C8.56919 166.634 32.2299 163.098 61.4471 147.582C77.4261 139.097 207.077 96.1029 221.998 83.6581C221.998 83.6581 31.4671 307.995 21.1338 348.912C10.8004 389.829 17.0716 390.899 20.8788 393.036C24.686 395.173 27.0418 394.733 42.3235 396.556C57.6053 398.378 63.2652 394.167 69.0509 391.653C74.8366 389.139 280.423 285.625 307.341 276.864C314.861 274.416 316.232 309.437 320.783 324.579C322.377 329.883 324.431 335.27 327.394 340.042C331.74 347.04 335.076 351.284 344.751 353.437C357.529 356.28 388.026 336.483 410.846 322.323C433.667 308.163 457.891 297.196 468.389 296.175C478.887 295.154 520.9 306.672 520.9 306.672C520.9 306.672 637.563 328.158 641.833 323.266C648.286 315.874 639.198 319.683 629.382 316.352Z" fill="url(#paint0_linear)" fill-opacity="0.5"/>
<defs>
<linearGradient id="paint0_linear" x1="421" y1="28.5" x2="25" y2="397" gradientUnits="userSpaceOnUse">
<stop stop-color="#F19F00" stop-opacity="0.13"/>
<stop offset="0.845304" stop-color="#FE6C6C" stop-opacity="0.33"/>
</linearGradient>
</defs>
</svg>
