<svg width="123" height="76" viewBox="0 0 123 76" fill="none" xmlns="http://www.w3.org/2000/svg">
<path d="M119.276 59.9673C117.447 59.3464 112.866 59.1589 104.019 56.5696C95.1717 53.9804 93.7743 46.5432 88.7867 45.7774C86.7302 45.4616 71.2153 57.2736 69.0297 56.9311C61.6996 55.7825 67.4435 45.4493 66.6861 45.4493C65.1551 45.4493 21.4827 65.777 17.9981 64.1485C16.2639 63.3381 19.8021 58.5048 23.8545 50.6413C27.9069 42.7777 44.8483 25.4631 48.8495 19.9801C52.8508 14.497 53.745 14.2625 54.6617 12.634C55.5785 11.0055 55.3689 6.65897 53.2556 2.86274C52.6371 1.75188 49.6253 0.131733 49.2825 1.56229C48.7941 3.60082 50.6069 0.941421 44.8398 7.29145C39.0727 13.6415 10.613 25.8273 2 31.7083C3.59674 32.0602 8.00557 31.4011 13.4498 28.5091C16.4272 26.9274 40.5858 18.9134 43.366 16.5937C43.366 16.5937 7.86343 58.4096 5.93797 66.0365C4.0125 73.6633 5.18104 73.8627 5.89045 74.261C6.59987 74.6594 7.03884 74.5774 9.88637 74.9172C12.7339 75.2569 13.7885 74.4719 14.8666 74.0033C15.9447 73.5346 54.2528 54.2399 59.2684 52.6069C60.6697 52.1507 60.9253 58.6784 61.7733 61.5009C62.0703 62.4895 62.453 63.4936 63.0051 64.3831C63.8148 65.6875 64.4365 66.4786 66.2394 66.8799C68.6202 67.4098 74.303 63.7197 78.5552 61.0804C82.8075 58.441 87.3213 56.3967 89.2774 56.2064C91.2335 56.0162 99.0621 58.163 99.0621 58.163C99.0621 58.163 120.801 62.168 121.596 61.2561C122.799 59.8783 121.105 60.5882 119.276 59.9673Z" fill="white" stroke="white"/>
</svg>
