<svg width="120" height="74" viewBox="0 0 120 74" fill="none" xmlns="http://www.w3.org/2000/svg">
<path d="M117.276 58.9673C115.447 58.3464 110.866 58.1589 102.019 55.5696C93.1717 52.9804 91.7743 45.5432 86.7867 44.7774C84.7302 44.4616 69.2153 56.2736 67.0297 55.9311C59.6996 54.7825 65.4435 44.4493 64.6861 44.4493C63.1551 44.4493 19.4827 64.777 15.9981 63.1485C14.2639 62.3381 17.8021 57.5048 21.8545 49.6413C25.9069 41.7777 42.8483 24.4631 46.8495 18.9801C50.8508 13.497 51.745 13.2625 52.6617 11.634C53.5785 10.0055 53.3689 5.65897 51.2556 1.86274C50.6371 0.751882 47.6253 -0.868267 47.2825 0.562293C46.7941 2.60082 48.6069 -0.0585794 42.8398 6.29145C37.0727 12.6415 8.61302 24.8273 0 30.7083C1.59674 31.0602 6.00557 30.4011 11.4498 27.5091C14.4272 25.9274 38.5858 17.9134 41.366 15.5937C41.366 15.5937 5.86343 57.4096 3.93797 65.0365C2.0125 72.6633 3.18104 72.8627 3.89045 73.261C4.59987 73.6594 5.03884 73.5774 7.88637 73.9172C10.7339 74.2569 11.7885 73.4719 12.8666 73.0033C13.9447 72.5346 52.2528 53.2399 57.2684 51.6069C58.6697 51.1507 58.9253 57.6784 59.7733 60.5009C60.0703 61.4895 60.453 62.4936 61.0051 63.3831C61.8148 64.6875 62.4365 65.4786 64.2394 65.8799C66.6202 66.4098 72.303 62.7197 76.5552 60.0804C80.8075 57.441 85.3213 55.3967 87.2774 55.2064C89.2335 55.0162 97.0621 57.163 97.0621 57.163C97.0621 57.163 118.801 61.168 119.596 60.2561C120.799 58.8783 119.105 59.5882 117.276 58.9673Z" fill="black"/>
</svg>
