<svg width="56" height="29" viewBox="0 0 56 29" fill="none" xmlns="http://www.w3.org/2000/svg">
<path d="M0 8.33636C-0.276142 8.33636 -0.5 8.56022 -0.5 8.83636C-0.5 9.11251 -0.276142 9.33636 0 9.33636V8.33636ZM53.569 7.23983L53.1677 7.5381L53.1677 7.5381L53.569 7.23983ZM48.5892 -0.298268C48.4245 -0.519896 48.1113 -0.566022 47.8896 -0.401293C47.668 -0.236564 47.6219 0.0766399 47.7866 0.298268L48.5892 -0.298268ZM0 9.33636H52.7664V8.33636H0V9.33636ZM53.9703 6.94156L48.5892 -0.298268L47.7866 0.298268L53.1677 7.5381L53.9703 6.94156ZM52.7664 9.33636C53.9995 9.33636 54.7059 7.93122 53.9703 6.94156L53.1677 7.5381C53.4129 7.86798 53.1775 8.33636 52.7664 8.33636V9.33636Z" transform="translate(1.24426 1)" fill="black"/>
<path d="M0 8.82727C-0.276142 8.82727 -0.5 9.05113 -0.5 9.32727C-0.5 9.60341 -0.276142 9.82727 0 9.82727V8.82727ZM53.4994 7.71309L53.1048 8.02018L53.1048 8.02018L53.4994 7.71309ZM47.8911 -0.307091C47.7215 -0.525013 47.4074 -0.564184 47.1895 -0.394582C46.9715 -0.22498 46.9324 0.0891698 47.102 0.307091L47.8911 -0.307091ZM0 9.82727H52.7103V8.82727H0V9.82727ZM53.894 7.406L47.8911 -0.307091L47.102 0.307091L53.1048 8.02018L53.894 7.406ZM52.7103 9.82727C53.9587 9.82727 54.6608 8.39122 53.894 7.406L53.1048 8.02018C53.3604 8.34859 53.1264 8.82727 52.7103 8.82727V9.82727Z" transform="translate(54.756 28) rotate(-180)" fill="black"/>
</svg>
